<svg width="27" height="27" viewBox="0 0 27 27" fill="none" xmlns="http://www.w3.org/2000/svg">
<path d="M11.296 22.5921C13.8023 22.5916 16.2364 21.7525 18.2106 20.2086L24.4178 26.4158L26.4144 24.4192L20.2072 18.212C21.7519 16.2376 22.5915 13.803 22.5921 11.296C22.5921 5.06769 17.5244 0 11.296 0C5.06769 0 0 5.06769 0 11.296C0 17.5244 5.06769 22.5921 11.296 22.5921ZM11.296 2.82401C15.9684 2.82401 19.7681 6.62372 19.7681 11.296C19.7681 15.9684 15.9684 19.7681 11.296 19.7681C6.62372 19.7681 2.82401 15.9684 2.82401 11.296C2.82401 6.62372 6.62372 2.82401 11.296 2.82401Z" fill="white"/>
<path d="M13.2897 9.29945C13.8249 9.83601 14.12 10.5448 14.12 11.296H16.944C16.9453 10.5539 16.7994 9.81892 16.5149 9.13352C16.2303 8.44812 15.8128 7.82592 15.2863 7.30287C13.1485 5.16792 9.44203 5.16792 7.30566 7.30287L9.29942 9.30227C10.3725 8.23197 12.2223 8.2348 13.2897 9.29945Z" fill="white"/>
</svg>
