<?xml version="1.0" encoding="iso-8859-1"?>
<!-- Generator: Adobe Illustrator 16.0.0, SVG Export Plug-In . SVG Version: 6.00 Build 0)  -->
<!DOCTYPE svg PUBLIC "-//W3C//DTD SVG 1.1//EN" "http://www.w3.org/Graphics/SVG/1.1/DTD/svg11.dtd">
<svg version="1.1" id="&#x5716;&#x5C64;_1" xmlns="http://www.w3.org/2000/svg" xmlns:xlink="http://www.w3.org/1999/xlink" x="0px"
	 y="0px" width="102px" height="54.902px" viewBox="0 3.765 102 54.902" style="enable-background:new 0 3.765 102 54.902;"
	 xml:space="preserve">
<g>
	<path style="fill:#FFFFFF;" d="M12.292,57.383c-2.94,0.308-5.642,0.461-8.105,0.461c-1.231,0-2.136-0.283-2.714-0.851
		c-0.578-0.565-0.867-1.455-0.867-2.662v-5.914c0-1.295,0.295-2.23,0.886-2.811c0.604-0.592,1.564-0.887,2.884-0.887h6.786v2.588
		H5.129c-0.754,0-1.131,0.37-1.131,1.109v5.916c0,0.283,0.082,0.512,0.245,0.684c0.176,0.16,0.408,0.24,0.697,0.24
		c1.445,0,2.765-0.03,3.958-0.092v-2.682h-2.45v-2.219h5.843L12.292,57.383L12.292,57.383z"/>
	<path style="fill:#FFFFFF;" d="M24.169,54.887c0,0.924-0.27,1.651-0.81,2.183c-0.528,0.518-1.263,0.774-2.206,0.774h-4.335
		c-0.942,0-1.684-0.259-2.224-0.774c-0.528-0.531-0.792-1.259-0.792-2.183v-4.252c0-0.925,0.264-1.646,0.792-2.163
		c0.54-0.53,1.282-0.795,2.224-0.795h4.335c0.942,0,1.678,0.265,2.206,0.795c0.54,0.518,0.81,1.238,0.81,2.163V54.887z
		 M20.871,50.912c0-0.492-0.251-0.738-0.754-0.738h-2.262c-0.502,0-0.754,0.247-0.754,0.738v3.697c0,0.492,0.251,0.739,0.754,0.739
		h2.262c0.502,0,0.754-0.247,0.754-0.739V50.912z"/>
	<path style="fill:#FFFFFF;" d="M43.012,57.383c-2.94,0.308-5.642,0.461-8.105,0.461c-1.231,0-2.136-0.283-2.714-0.851
		c-0.578-0.566-0.867-1.455-0.867-2.662v-5.914c0-1.295,0.295-2.23,0.886-2.811c0.604-0.592,1.564-0.887,2.884-0.887h6.786v2.588
		H35.85c-0.754,0-1.131,0.37-1.131,1.109v5.916c0,0.283,0.082,0.512,0.245,0.684c0.176,0.16,0.409,0.24,0.697,0.24
		c1.445,0,2.765-0.03,3.958-0.092v-2.682h-2.451v-2.219h5.843L43.012,57.383L43.012,57.383z"/>
	<path style="fill:#FFFFFF;" d="M54.891,54.887c0,0.924-0.271,1.651-0.811,2.183c-0.527,0.518-1.264,0.774-2.205,0.774H47.54
		c-0.942,0-1.684-0.259-2.224-0.774c-0.528-0.531-0.792-1.259-0.792-2.183v-4.252c0-0.925,0.264-1.646,0.792-2.163
		c0.541-0.53,1.282-0.795,2.224-0.795h4.335c0.941,0,1.678,0.265,2.205,0.795c0.54,0.518,0.811,1.238,0.811,2.163V54.887z
		 M51.592,50.912c0-0.492-0.251-0.738-0.754-0.738h-2.262c-0.502,0-0.754,0.247-0.754,0.738v3.697c0,0.492,0.251,0.739,0.754,0.739
		h2.262c0.503,0,0.754-0.247,0.754-0.739V50.912z"/>
	<path style="fill:#FFFFFF;" d="M62.424,44.72h7.539c1.232,0,2.137,0.277,2.715,0.832c0.578,0.542,0.867,1.374,0.867,2.496
		c0,0.738-0.164,1.343-0.49,1.813c-0.326,0.455-0.729,0.775-1.207,0.961c1.02,0.271,1.709,0.936,2.074,1.996
		c0.125,0.383,0.188,0.826,0.188,1.33c0,1.209-0.289,2.096-0.866,2.662s-1.481,0.852-2.714,0.852h-8.104L62.424,44.72L62.424,44.72z
		 M70.717,53.593c0-0.739-0.377-1.109-1.131-1.109h-3.77v2.588h3.77c0.754,0,1.131-0.369,1.131-1.107V53.593z M70.152,48.417
		c0-0.739-0.377-1.109-1.131-1.109h-3.205v2.588h3.205c0.754,0,1.131-0.37,1.131-1.109V48.417z"/>
	<path style="fill:#FFFFFF;" d="M80.234,55.164c0.666,0,1.42-0.123,2.262-0.369v-6.932h3.299v9.799h-2.922l-0.188-0.926
		c-0.592,0.383-1.201,0.665-1.828,0.852c-0.616,0.172-1.139,0.258-1.564,0.258h-0.85c-0.854,0-1.539-0.252-2.055-0.758
		c-0.515-0.506-0.771-1.176-0.771-2.016v-7.209h3.299v6.654c0,0.186,0.063,0.339,0.188,0.462c0.127,0.123,0.283,0.187,0.473,0.187
		h0.658V55.164z"/>
	<path style="fill:#FFFFFF;" d="M87.297,55.072c2.551,0.186,4.561,0.277,6.031,0.277c0.188,0,0.346-0.063,0.471-0.186
		c0.126-0.123,0.189-0.276,0.189-0.463v-0.646h-4.053c-0.855,0-1.539-0.252-2.056-0.758c-0.517-0.507-0.772-1.177-0.772-2.015
		v-0.647c0-0.838,0.258-1.511,0.772-2.015c0.517-0.506,1.199-0.758,2.056-0.758h6.407v2.402h-5.276
		c-0.189,0-0.346,0.063-0.473,0.186c-0.126,0.123-0.188,0.276-0.188,0.461c0,0.186,0.063,0.34,0.188,0.463
		c0.127,0.123,0.282,0.185,0.473,0.185h3.393c0.854,0,1.539,0.253,2.055,0.757c0.516,0.506,0.772,1.178,0.772,2.016v0.74
		c0,0.838-0.257,1.51-0.772,2.014c-0.516,0.507-1.199,0.759-2.055,0.759c-2.225,0-4.611-0.123-7.162-0.369V55.072z"/>
	<path style="fill:#FFFFFF;" d="M98.607,54.887H102v2.772h-3.393V54.887z M98.984,53.779l-0.377-3.883V44.72H102v5.176l-0.377,3.883
		H98.984z"/>
</g>
<path style="fill:#FFFFFF;" d="M66.145,20.08v-1.015h1.65v-5.1h-1.65v-3.4c0-3.75-2.959-6.8-6.598-6.8H43.051
	c-3.639,0-6.599,3.05-6.599,6.8v3.4h-1.649v5.1h1.649v1.015c-1.067,1.241-1.653,2.843-1.647,4.501l0.006,6.389
	c0.002,1.246,0.667,2.327,1.642,2.917v2.178c0,0.451,0.174,0.884,0.483,1.202s0.729,0.498,1.166,0.498h1.65
	c0.438,0,0.856-0.18,1.166-0.498c0.309-0.318,0.482-0.751,0.482-1.202v-1.7h19.795v1.7c0,0.451,0.175,0.884,0.484,1.202
	c0.309,0.318,0.729,0.498,1.166,0.498h1.648c0.438,0,0.857-0.18,1.167-0.498s0.481-0.751,0.481-1.202V33.9
	c0.254-0.146,0.486-0.324,0.695-0.533c0.621-0.643,0.965-1.496,0.963-2.403l-0.007-6.391C67.799,22.915,67.212,21.318,66.145,20.08z
	 M44.7,7.165h13.196v3.4H44.7V7.165z M42.227,29.265c-0.657,0-1.287-0.27-1.75-0.748c-0.465-0.479-0.725-1.127-0.725-1.804
	c0-0.677,0.261-1.325,0.725-1.804c0.465-0.479,1.095-0.746,1.751-0.746c0.656,0,1.286,0.27,1.75,0.748s0.725,1.127,0.725,1.804
	c-0.001,0.677-0.261,1.325-0.726,1.804C43.512,28.996,42.883,29.265,42.227,29.265z M49.648,20.765h-9.896v-6.8h9.896V20.765z
	 M60.371,29.265c-0.656,0-1.285-0.27-1.75-0.748c-0.464-0.479-0.725-1.127-0.725-1.804c0-0.677,0.262-1.325,0.727-1.804
	c0.464-0.479,1.094-0.746,1.75-0.746s1.285,0.27,1.75,0.748c0.464,0.479,0.725,1.127,0.725,1.804c0,0.677-0.262,1.325-0.726,1.804
	C61.657,28.996,61.027,29.265,60.371,29.265z M62.846,20.765h-9.896v-6.8h9.896V20.765z"/>
</svg>
